<svg xmlns="http://www.w3.org/2000/svg" viewBox="0 0 900 360" role="img" aria-labelledby="t d"><title id="t">Database Read and Write Scaling</title><desc id="d">Writes go to primary and reads to asynchronous replicas.</desc><defs><marker id="a" markerWidth="8" markerHeight="8" refX="7" refY="4" orient="auto"><path d="M0 0 8 4 0 8z" fill="#94a3b8"/></marker></defs><rect width="900" height="360" fill="#0b1322"/><g fill="none" stroke="#94a3b8" stroke-width="2" marker-end="url(#a)"><path d="M170 180H300"/><path d="M440 180H560"/><path d="M440 155H540V75H680"/><path d="M440 205H540V285H680"/></g><g font-family="system-ui" text-anchor="middle" fill="#172033"><rect x="40" y="140" width="130" height="80" rx="16" fill="#bfdbfe" stroke="#60a5fa"/><text x="105" y="187" font-size="18" font-weight="700">Service</text><rect x="300" y="125" width="140" height="110" rx="16" fill="#c7d2fe" stroke="#818cf8"/><text x="370" y="170" font-size="17" font-weight="700">DB Router</text><text x="370" y="195" font-size="13">consistency policy</text><rect x="560" y="140" width="180" height="80" rx="16" fill="#99f6e4" stroke="#2dd4bf"/><text x="650" y="175" font-size="17" font-weight="700">Primary</text><text x="650" y="198" font-size="13">semua write</text><rect x="680" y="40" width="170" height="70" rx="16" fill="#fde68a" stroke="#f59e0b"/><text x="765" y="82" font-size="16" font-weight="700">Read Replica A</text><rect x="680" y="250" width="170" height="70" rx="16" fill="#fde68a" stroke="#f59e0b"/><text x="765" y="292" font-size="16" font-weight="700">Read Replica B</text></g><g font-family="system-ui" fill="#a3adbd" font-size="13"><text x="500" y="168">write</text><text x="560" y="62">async replication</text><text x="560" y="303">stale read risk</text></g></svg>
