<svg xmlns="http://www.w3.org/2000/svg" viewBox="0 0 900 360" role="img" aria-labelledby="t d"><title id="t">Observability and Security</title><desc id="d">Secure requests traverse services and emit correlated metrics logs and traces.</desc><defs><marker id="a" markerWidth="8" markerHeight="8" refX="7" refY="4" orient="auto"><path d="M0 0 8 4 0 8z" fill="#94a3b8"/></marker></defs><rect width="900" height="360" fill="#0b1322"/><g fill="none" stroke="#94a3b8" stroke-width="2" marker-end="url(#a)"><path d="M160 115H280"/><path d="M410 115H530"/><path d="M660 115H770"/><path d="M345 160V245"/><path d="M595 160V245"/></g><g font-family="system-ui" text-anchor="middle" fill="#172033"><rect x="30" y="75" width="130" height="80" rx="16" fill="#bfdbfe" stroke="#60a5fa"/><text x="95" y="110" font-size="17" font-weight="700">Client</text><text x="95" y="133" font-size="13">TLS</text><rect x="280" y="65" width="130" height="100" rx="16" fill="#c7d2fe" stroke="#818cf8"/><text x="345" y="104" font-size="17" font-weight="700">Gateway</text><text x="345" y="128" font-size="13">OIDC + policy</text><rect x="530" y="65" width="130" height="100" rx="16" fill="#c7d2fe" stroke="#818cf8"/><text x="595" y="104" font-size="17" font-weight="700">Service</text><text x="595" y="128" font-size="13">trace context</text><rect x="770" y="75" width="100" height="80" rx="16" fill="#99f6e4" stroke="#2dd4bf"/><text x="820" y="110" font-size="17" font-weight="700">Data</text><text x="820" y="133" font-size="13">encrypted</text><rect x="235" y="245" width="220" height="75" rx="16" fill="#fde68a" stroke="#f59e0b"/><text x="345" y="279" font-size="17" font-weight="700">Metrics + Logs</text><text x="345" y="302" font-size="13">SLO · alert · audit</text><rect x="485" y="245" width="220" height="75" rx="16" fill="#fde68a" stroke="#f59e0b"/><text x="595" y="279" font-size="17" font-weight="700">Distributed Traces</text><text x="595" y="302" font-size="13">OpenTelemetry</text></g><text x="450" y="345" text-anchor="middle" font-family="system-ui" fill="#a3adbd" font-size="13">Trace ID menghubungkan telemetry · least privilege · key rotation · data minimization</text></svg>
