<svg xmlns="http://www.w3.org/2000/svg" viewBox="0 0 900 430" role="img" aria-labelledby="t d"><title id="t">Performance dan Scalability</title><desc id="d">Alur request melewati queue, application fleet, dan database dengan metrics latency, throughput, serta saturation.</desc><defs><marker id="a" markerWidth="8" markerHeight="8" refX="7" refY="4" orient="auto"><path d="M0 0 8 4 0 8z" fill="#94a3b8"/></marker></defs><rect width="900" height="430" fill="#0b1322"/><g fill="none" stroke="#94a3b8" stroke-width="2" marker-end="url(#a)"><path d="M165 200H270"/><path d="M410 200H505"/><path d="M650 200H740"/></g><g font-family="system-ui" text-anchor="middle" fill="#172033"><rect x="35" y="150" width="130" height="100" rx="16" fill="#bfdbfe" stroke="#60a5fa"/><text x="100" y="193" font-size="18" font-weight="700">Traffic</text><text x="100" y="218" font-size="13">arrival rate</text><rect x="270" y="150" width="140" height="100" rx="16" fill="#fde68a" stroke="#f59e0b"/><text x="340" y="193" font-size="18" font-weight="700">Bounded Queue</text><text x="340" y="218" font-size="13">waiting time</text><rect x="505" y="125" width="145" height="150" rx="16" fill="#c7d2fe" stroke="#818cf8"/><text x="577" y="165" font-size="18" font-weight="700">App Fleet</text><rect x="530" y="184" width="95" height="28" rx="8" fill="#e0e7ff"/><text x="577" y="203" font-size="12">horizontal scale</text><rect x="530" y="221" width="95" height="28" rx="8" fill="#e0e7ff"/><text x="577" y="240" font-size="12">saturation</text><rect x="740" y="150" width="125" height="100" rx="16" fill="#99f6e4" stroke="#2dd4bf"/><text x="802" y="193" font-size="18" font-weight="700">Database</text><text x="802" y="218" font-size="13">bottleneck?</text></g><g font-family="system-ui" text-anchor="middle"><text x="450" y="55" fill="#e8eef8" font-size="22" font-weight="700">Scaling mengikuti bottleneck yang terukur</text><text x="450" y="335" fill="#93c5fd" font-size="15">Latency p95/p99 · Throughput · Saturation · Error rate</text><text x="450" y="370" fill="#a3adbd" font-size="13">Concurrency ≈ throughput × latency · sisakan headroom saat node atau zone gagal</text></g></svg>
